# xmcd
#
# Track frame offsets:
#	150
#	22472
#	43962
#	66322
#
# Disc length: 1169 seconds
#
# Revision: 3
# Processed by: cddbd v1.5PL3 Copyright (c) Steve Scherf et al.
# Submitted via: dBpowerAMP V4.0
#
DISCID=3d048f04
DTITLE=DOS - More Kiss
DYEAR=1996
DGENRE=JPop
TTITLE0=More Kiss [Straight Run Mix]
TTITLE1=BLISS [Straight Run Mix]
TTITLE2=More Kiss [Summer Vaction Mix]
TTITLE3=BLISS [Midnight Mix]
EXTD=
EXTT0=
EXTT1=
EXTT2=
EXTT3=
PLAYORDER=
